<svg width="1399" height="80" viewBox="0 0 1399 80" fill="none" xmlns="http://www.w3.org/2000/svg">
<g clip-path="url(#clip0_9_50)">
<path d="M47.2812 29H55.625L64.4375 50.5H64.8125L73.625 29H81.9688V61H75.4063V40.1719H75.1406L66.8594 60.8437H62.3906L54.1094 40.0937H53.8438V61H47.2812V29ZM98.2617 61.4688C95.8346 61.4688 93.7357 60.9531 91.9648 59.9219C90.2044 58.8802 88.8451 57.4323 87.8867 55.5781C86.9284 53.7135 86.4492 51.5521 86.4492 49.0937C86.4492 46.6146 86.9284 44.4479 87.8867 42.5937C88.8451 40.7292 90.2044 39.2812 91.9648 38.25C93.7357 37.2083 95.8346 36.6875 98.2617 36.6875C100.689 36.6875 102.783 37.2083 104.543 38.25C106.314 39.2812 107.678 40.7292 108.637 42.5937C109.595 44.4479 110.074 46.6146 110.074 49.0937C110.074 51.5521 109.595 53.7135 108.637 55.5781C107.678 57.4323 106.314 58.8802 104.543 59.9219C102.783 60.9531 100.689 61.4688 98.2617 61.4688ZM98.293 56.3125C99.3971 56.3125 100.319 56 101.059 55.375C101.798 54.7396 102.355 53.875 102.73 52.7812C103.116 51.6875 103.309 50.4427 103.309 49.0469C103.309 47.651 103.116 46.4063 102.73 45.3125C102.355 44.2187 101.798 43.3542 101.059 42.7187C100.319 42.0833 99.3971 41.7656 98.293 41.7656C97.1784 41.7656 96.2409 42.0833 95.4805 42.7187C94.7305 43.3542 94.1628 44.2187 93.7773 45.3125C93.4023 46.4063 93.2148 47.651 93.2148 49.0469C93.2148 50.4427 93.4023 51.6875 93.7773 52.7812C94.1628 53.875 94.7305 54.7396 95.4805 55.375C96.2409 56 97.1784 56.3125 98.293 56.3125ZM120.762 52.2187L129.402 37H135.965V61H129.621V45.7344L121.012 61H114.402V37H120.762V52.2187ZM128.262 28.625H132.902C132.892 30.5208 132.189 32.0469 130.793 33.2031C129.408 34.3594 127.533 34.9375 125.168 34.9375C122.793 34.9375 120.913 34.3594 119.527 33.2031C118.142 32.0469 117.449 30.5208 117.449 28.625H122.059C122.048 29.3437 122.277 29.9896 122.746 30.5625C123.225 31.1354 124.033 31.4219 125.168 31.4219C126.272 31.4219 127.064 31.1406 127.543 30.5781C128.022 30.0156 128.262 29.3646 128.262 28.625Z" fill="#FF5722"/>
<path d="M141.426 29H149.77L158.582 50.5H158.957L167.77 29H176.113V61H169.551V40.1719H169.285L161.004 60.8437H156.535L148.254 40.0937H147.988V61H141.426V29ZM188.406 61.4531C186.875 61.4531 185.51 61.1875 184.313 60.6562C183.115 60.1146 182.167 59.3177 181.469 58.2656C180.781 57.2031 180.438 55.8802 180.438 54.2969C180.438 52.9635 180.682 51.8437 181.172 50.9375C181.661 50.0313 182.328 49.3021 183.172 48.75C184.016 48.1979 184.974 47.7812 186.047 47.5C187.13 47.2187 188.266 47.0208 189.453 46.9062C190.849 46.7604 191.974 46.625 192.828 46.5C193.682 46.3646 194.302 46.1667 194.688 45.9062C195.073 45.6458 195.266 45.2604 195.266 44.75V44.6562C195.266 43.6667 194.953 42.901 194.328 42.3594C193.714 41.8177 192.839 41.5469 191.703 41.5469C190.505 41.5469 189.552 41.8125 188.844 42.3437C188.135 42.8646 187.667 43.5208 187.438 44.3125L181.281 43.8125C181.594 42.3542 182.208 41.0937 183.125 40.0312C184.042 38.9583 185.224 38.1354 186.672 37.5625C188.13 36.9792 189.818 36.6875 191.734 36.6875C193.068 36.6875 194.344 36.8437 195.563 37.1562C196.792 37.4687 197.88 37.9531 198.828 38.6094C199.786 39.2656 200.542 40.1094 201.094 41.1406C201.646 42.1615 201.922 43.3854 201.922 44.8125V61H195.609V57.6719H195.422C195.036 58.4219 194.521 59.0833 193.875 59.6562C193.229 60.2187 192.453 60.6615 191.547 60.9844C190.641 61.2969 189.594 61.4531 188.406 61.4531ZM190.313 56.8594C191.292 56.8594 192.156 56.6667 192.906 56.2812C193.656 55.8854 194.245 55.3542 194.672 54.6875C195.099 54.0208 195.313 53.2656 195.313 52.4219V49.875C195.104 50.0104 194.818 50.1354 194.453 50.25C194.099 50.3542 193.698 50.4531 193.25 50.5469C192.802 50.6302 192.354 50.7083 191.906 50.7812C191.458 50.8437 191.052 50.901 190.688 50.9531C189.906 51.0677 189.224 51.25 188.641 51.5C188.057 51.75 187.604 52.0885 187.281 52.5156C186.958 52.9323 186.797 53.4531 186.797 54.0781C186.797 54.9844 187.125 55.6771 187.781 56.1562C188.448 56.625 189.292 56.8594 190.313 56.8594ZM207.086 70V37H213.648V41.0312H213.945C214.237 40.3854 214.659 39.7292 215.211 39.0625C215.773 38.3854 216.503 37.8229 217.398 37.375C218.305 36.9167 219.43 36.6875 220.773 36.6875C222.523 36.6875 224.138 37.1458 225.617 38.0625C227.096 38.9687 228.279 40.3385 229.164 42.1719C230.049 43.9948 230.492 46.2812 230.492 49.0312C230.492 51.7083 230.06 53.9687 229.195 55.8125C228.341 57.6458 227.174 59.0365 225.695 59.9844C224.227 60.9219 222.581 61.3906 220.758 61.3906C219.466 61.3906 218.367 61.1771 217.461 60.75C216.565 60.3229 215.831 59.7865 215.258 59.1406C214.685 58.4844 214.247 57.8229 213.945 57.1562H213.742V70H207.086ZM213.602 49C213.602 50.4271 213.799 51.6719 214.195 52.7344C214.591 53.7969 215.164 54.625 215.914 55.2187C216.664 55.8021 217.576 56.0937 218.648 56.0937C219.732 56.0937 220.648 55.7969 221.398 55.2031C222.148 54.599 222.716 53.7656 223.102 52.7031C223.497 51.6302 223.695 50.3958 223.695 49C223.695 47.6146 223.503 46.3958 223.117 45.3437C222.732 44.2917 222.164 43.4687 221.414 42.875C220.664 42.2812 219.742 41.9844 218.648 41.9844C217.565 41.9844 216.648 42.2708 215.898 42.8437C215.159 43.4167 214.591 44.2292 214.195 45.2812C213.799 46.3333 213.602 47.5729 213.602 49ZM234.93 61V37H241.586V46.3125H243.461L249.992 37H257.805L249.32 48.9062L257.898 61H249.992L244.07 52.4844H241.586V61H234.93ZM270.66 61.4688C268.191 61.4688 266.066 60.9688 264.285 59.9688C262.514 58.9583 261.15 57.5312 260.191 55.6875C259.233 53.8333 258.754 51.6406 258.754 49.1094C258.754 46.6406 259.233 44.474 260.191 42.6094C261.15 40.7448 262.499 39.2917 264.238 38.25C265.988 37.2083 268.04 36.6875 270.395 36.6875C271.978 36.6875 273.452 36.9427 274.816 37.4531C276.191 37.9531 277.389 38.7083 278.41 39.7187C279.441 40.7292 280.243 42 280.816 43.5312C281.389 45.0521 281.676 46.8333 281.676 48.875V50.7031H261.41V46.5781H275.41C275.41 45.6198 275.202 44.7708 274.785 44.0313C274.368 43.2917 273.79 42.7135 273.051 42.2969C272.322 41.8698 271.473 41.6562 270.504 41.6562C269.493 41.6562 268.598 41.8906 267.816 42.3594C267.046 42.8177 266.441 43.4375 266.004 44.2187C265.566 44.9896 265.342 45.849 265.332 46.7969V50.7187C265.332 51.9062 265.551 52.9323 265.988 53.7969C266.436 54.6615 267.066 55.3281 267.879 55.7969C268.691 56.2656 269.655 56.5 270.77 56.5C271.509 56.5 272.186 56.3958 272.801 56.1875C273.415 55.9792 273.941 55.6667 274.379 55.25C274.816 54.8333 275.15 54.3229 275.379 53.7188L281.535 54.125C281.223 55.6042 280.582 56.8958 279.613 58C278.655 59.0937 277.415 59.9479 275.895 60.5625C274.384 61.1667 272.639 61.4688 270.66 61.4688ZM284.168 42.2344V37H305.918V42.2344H298.184V61H291.84V42.2344H284.168Z" fill="black"/>
</g>
<path d="M4 30L1 61H37.5L34 30H4Z" fill="#9CCC65" stroke="#9CCC65"/>
<path d="M28.5 43.5H9.5V61H28.5V43.5Z" fill="#B71C1C"/>
<path d="M9.5 61.5V43.5H28.5V61.5M9.5 61H28.5" stroke="#B71C1C"/>
<path d="M17.5 45.5H11.5V61H17.5V45.5Z" fill="#FF5722" stroke="#FF5722"/>
<path d="M15.5 52.5H14.5V53.5H15.5V52.5Z" stroke="#B71C1C"/>
<path d="M26.5 45.5H20.5V61H26.5V45.5Z" fill="#FF5722" stroke="#FF5722"/>
<path d="M23.5 52.5H22.5V53.5H23.5V52.5Z" stroke="#B71C1C"/>
<circle cx="27" cy="35" r="2" fill="#2A6A27"/>
<circle cx="11" cy="35" r="2" fill="#2A6A27"/>
<path d="M11 35V30.5127C11 27.6435 12.2324 24.9126 14.3838 23.0143L14.6203 22.8056C17.3632 20.3854 21.515 20.515 24.1016 23.1016V23.1016C25.9574 24.9574 27 27.4744 27 30.099V35" stroke="#388E3C" stroke-width="2" stroke-linecap="round"/>
<defs>
<clipPath id="clip0_9_50">
<rect width="1351.5" height="80" fill="white" transform="translate(47.5)"/>
</clipPath>
</defs>
</svg>
