<svg width="30" height="30" viewBox="0 0 30 30" fill="none" xmlns="http://www.w3.org/2000/svg">
<path d="M10.3477 10.5575L2.27749 11.1802C1.40827 11.2473 1.03513 12.3169 1.67403 12.9101L7.60692 18.4182C7.87022 18.6626 7.98215 19.0295 7.90013 19.3793L5.97324 27.5972C5.76815 28.4718 6.73084 29.1523 7.48692 28.6671L14.3825 24.242C14.7093 24.0323 15.1278 24.0307 15.4562 24.2378L22.4844 28.6716C23.2467 29.1525 24.2062 28.4587 23.9883 27.5841L21.9476 19.3931C21.8587 19.0361 21.9729 18.6592 22.245 18.4117L28.2897 12.912C28.9377 12.3224 28.5682 11.2438 27.6948 11.1754L19.7966 10.5567C19.4189 10.5272 19.0904 10.2867 18.948 9.93566L15.882 2.37656C15.5395 1.53216 14.3383 1.54843 14.0188 2.40179L11.2073 9.91114C11.0708 10.2755 10.7355 10.5276 10.3477 10.5575Z" fill="#FFD017"/>
</svg>
